<svg width="420" height="420" viewBox="0 0 420 420" fill="none" xmlns="http://www.w3.org/2000/svg"><ellipse cx="210" cy="336" rx="130" ry="25" fill="#2A060B" opacity=".14"/><path d="M111 166h198l-31 143H142l-31-143Z" fill="#C99C43"/><path d="M128 195h164l-13 53H140l-12-53Z" fill="#FFF8E9"/><path d="M141 248h138l-14 42H154l-13-42Z" fill="#D8B976"/><path d="M150 133c32-30 92-44 126 0" stroke="#FFF8E9" stroke-width="17" stroke-linecap="round"/><path d="M218 110c18-35 48-44 80-27" stroke="#6B1E2D" stroke-width="10" stroke-linecap="round"/><path d="M210 111c-14-35-43-45-75-28" stroke="#6B1E2D" stroke-width="10" stroke-linecap="round"/><circle cx="170" cy="218" r="8" fill="#7D1826"/><circle cx="236" cy="272" r="8" fill="#7D1826"/><circle cx="255" cy="219" r="7" fill="#7D1826"/></svg>
