<svg width="420" height="420" viewBox="0 0 420 420" fill="none" xmlns="http://www.w3.org/2000/svg"><ellipse cx="210" cy="330" rx="130" ry="25" fill="#2A060B" opacity=".14"/><path d="M90 244c25-95 88-134 135-125 48 9 91 53 105 125-65-48-174-49-240 0Z" fill="#D8B976"/><path d="M110 252c50-65 150-75 200 0-53 44-150 45-200 0Z" fill="#C99C43"/><path d="M158 147c16 28 23 67 12 112" stroke="#FFF8E9" stroke-width="9" stroke-linecap="round" opacity=".8"/><path d="M234 130c3 39-2 79-16 121" stroke="#FFF8E9" stroke-width="9" stroke-linecap="round" opacity=".8"/><path d="M300 183c-16 26-30 52-38 83" stroke="#FFF8E9" stroke-width="9" stroke-linecap="round" opacity=".8"/></svg>
