<svg width="420" height="420" viewBox="0 0 420 420" fill="none" xmlns="http://www.w3.org/2000/svg"><ellipse cx="210" cy="342" rx="132" ry="28" fill="#2A060B" opacity=".14"/><path d="M111 178c0-45 36-81 81-81h36c45 0 81 36 81 81v132H111V178Z" fill="#6B1E2D"/><path d="M111 174c0-37 30-67 67-67h64c37 0 67 30 67 67v41H111v-41Z" fill="#FFF8E9"/><rect x="133" y="217" width="154" height="93" rx="12" fill="#F5E6C9"/><path d="M151 244c27 25 55-22 83 1 22 18 44-8 72 6" stroke="#D8B976" stroke-width="10" stroke-linecap="round"/><circle cx="211" cy="83" r="23" fill="#7D1826"/><path d="M210 53v28" stroke="#C99C43" stroke-width="8" stroke-linecap="round"/></svg>
